<?xml version="1.0" encoding="UTF-8"?>
<svg version="1.1" xmlns="http://www.w3.org/2000/svg" width="512" height="512">
<path d="M0 0 C1.00675781 -0.00306152 2.01351562 -0.00612305 3.05078125 -0.00927734 C4.1284375 0.01312012 5.20609375 0.03551758 6.31640625 0.05859375 C7.99669922 0.08058838 7.99669922 0.08058838 9.7109375 0.10302734 C59.27072453 1.2057607 107.57291178 21.27333908 144.87890625 53.49609375 C145.78898437 54.27597656 146.6990625 55.05585937 147.63671875 55.859375 C150.09956757 58.02525651 152.49886024 60.23954069 154.87890625 62.49609375 C155.37455078 62.96450684 155.87019531 63.43291992 156.38085938 63.91552734 C164.7262377 71.85783302 172.01097003 80.25714573 178.87890625 89.49609375 C179.30268555 90.05377441 179.72646484 90.61145508 180.16308594 91.18603516 C199.50301129 116.65795067 211.81891606 146.47967555 218.87890625 177.49609375 C219.09353516 178.41342285 219.30816406 179.33075195 219.52929688 180.27587891 C222.81012334 194.88597198 223.26780327 209.3362447 223.31640625 224.24609375 C223.32580231 225.59096863 223.32580231 225.59096863 223.33538818 226.9630127 C223.40997671 243.84939237 221.74711293 260.58362007 217.62890625 276.99609375 C217.41621094 277.85315918 217.20351563 278.71022461 216.984375 279.59326172 C208.34748685 313.40667884 192.69088239 344.0854574 169.87890625 370.49609375 C169.09902344 371.40617187 168.31914062 372.31625 167.515625 373.25390625 C165.34974349 375.71675507 163.13545931 378.11604774 160.87890625 380.49609375 C160.41049316 380.99173828 159.94208008 381.48738281 159.45947266 381.99804688 C151.51716698 390.3434252 143.11785427 397.62815753 133.87890625 404.49609375 C133.32122559 404.91987305 132.76354492 405.34365234 132.18896484 405.78027344 C105.26590793 426.22199917 73.75493125 438.62453231 40.87890625 445.49609375 C40.05890137 445.67688477 39.23889648 445.85767578 38.39404297 446.04394531 C13.02238685 451.4618791 -17.82173949 451.05013458 -43.12109375 445.49609375 C-43.9728418 445.31916992 -44.82458984 445.14224609 -45.70214844 444.95996094 C-88.538265 435.96391034 -126.54325334 415.72284248 -158.12109375 385.49609375 C-158.61851074 385.0259082 -159.11592773 384.55572266 -159.62841797 384.07128906 C-167.63448138 376.47414441 -174.52859096 368.33665222 -181.12109375 359.49609375 C-181.75893799 358.65739746 -181.75893799 358.65739746 -182.40966797 357.80175781 C-209.56788373 322.02934443 -224.97045098 276.67012271 -225.55859375 231.87109375 C-225.59218994 230.26053101 -225.59218994 230.26053101 -225.62646484 228.61743164 C-225.62340332 227.61574951 -225.6203418 226.61406738 -225.6171875 225.58203125 C-225.61904053 224.69563965 -225.62089355 223.80924805 -225.62280273 222.89599609 C-224.93905385 219.6253141 -223.71938347 218.56829535 -221.12109375 216.49609375 C-218.23730469 215.98815918 -218.23730469 215.98815918 -214.85546875 215.97851562 C-213.58735352 215.96590698 -212.31923828 215.95329834 -211.01269531 215.94030762 C-209.6321558 215.94746745 -208.25162136 215.95567144 -206.87109375 215.96484375 C-205.45149469 215.96214813 -204.03189744 215.95826512 -202.61230469 215.95324707 C-199.63979481 215.94735517 -196.66776634 215.95590421 -193.6953125 215.97460938 C-189.88850588 215.99739975 -186.08282726 215.98427487 -182.27606201 215.96031952 C-179.34545419 215.94585261 -176.41511301 215.9504714 -173.48449707 215.96083069 C-172.08109401 215.96349556 -170.6776666 215.96023658 -169.27429199 215.95091248 C-167.3117724 215.94073434 -165.34916773 215.95900335 -163.38671875 215.97851562 C-162.27071289 215.981698 -161.15470703 215.98488037 -160.00488281 215.98815918 C-156.48109785 216.60881907 -155.31873378 217.73444469 -153.12109375 220.49609375 C-151.86864052 223.54642339 -151.95904412 226.75625281 -151.83129883 230.02661133 C-150.63678862 260.26585977 -140.77343809 290.4646089 -122.12109375 314.49609375 C-121.53585938 315.30046875 -120.950625 316.10484375 -120.34765625 316.93359375 C-96.95406924 347.98883589 -60.66257685 368.28542262 -22.37890625 373.96484375 C15.8392057 378.99214518 56.27155071 369.8689863 87.56640625 346.87109375 C94.71568125 341.17210025 101.50085748 335.04652221 107.87890625 328.49609375 C108.39203369 328.00270508 108.90516113 327.50931641 109.43383789 327.00097656 C132.21166283 304.92702401 147.64105017 269.50540094 149.04003906 237.85009766 C149.61613322 213.96606705 149.61613322 213.96606705 145.87890625 190.49609375 C145.60481934 189.38331055 145.60481934 189.38331055 145.32519531 188.24804688 C140.5123529 168.88603716 132.1368784 150.28913652 119.87890625 134.49609375 C119.29367187 133.69171875 118.7084375 132.88734375 118.10546875 132.05859375 C94.55638442 100.79692722 58.40842745 80.94129233 19.99609375 75.01171875 C14.50615192 74.26154036 8.99912894 73.99296731 3.46484375 73.8046875 C-0.32765556 73.47831773 -3.54734923 72.80646674 -7.12109375 71.49609375 C-9.46572478 67.97914721 -9.38322853 66.50860563 -9.41162109 62.34399414 C-9.4243808 61.07580338 -9.4371405 59.80761261 -9.45028687 58.50099182 C-9.45334418 57.1152461 -9.45557212 55.72949833 -9.45703125 54.34375 C-9.46345827 52.92272303 -9.47018656 51.5016974 -9.47720337 50.08067322 C-9.48917765 47.10233492 -9.49288401 44.12411263 -9.49169922 41.14575195 C-9.49149592 37.33115252 -9.51880748 33.5172972 -9.55324364 29.70287418 C-9.57549103 26.76802663 -9.57953746 23.83335884 -9.57847977 20.89843559 C-9.58083864 19.4922167 -9.58967839 18.08599307 -9.6051445 16.67985725 C-9.62475842 14.71253181 -9.61645575 12.74498806 -9.60693359 10.77758789 C-9.60978363 9.65856583 -9.61263367 8.53954376 -9.61557007 7.38661194 C-8.6595719 1.7982147 -5.37004484 -0.0111462 0 0 Z " fill="#F95857" transform="translate(289.12109375,63.50390625)"/>
<path d="M0 0 C3.38606465 0.71724522 5.7910083 2.27884927 8.5546875 4.3125 C12.55326893 6.92399323 16.71643532 6.7332081 21.37890625 6.50390625 C22.92578374 6.15101653 24.46755883 5.77513562 26.00390625 5.37890625 C28.79358623 4.72640483 30.26850259 4.48383286 33.12890625 5.00390625 C36.24116727 7.07874693 38.11489162 9.52834416 40.37890625 12.50390625 C41.18328125 11.69953125 41.98765625 10.89515625 42.81640625 10.06640625 C46.37890625 6.50390625 46.37890625 6.50390625 50.00390625 6.25390625 C53.26024665 6.27704188 54.70361011 6.64559521 57.81640625 8.00390625 C67.00077094 11.87100717 77.27106445 8.4374415 86.37890625 5.50390625 C88.53971307 4.62311548 90.68758871 3.7094241 92.81640625 2.75390625 C97.69610152 0.61613499 102.07284599 -0.85083254 107.37890625 0.50390625 C111.95334128 4.11530233 113.34471054 9.9534746 114.37890625 15.50390625 C116.21825562 33.45418323 109.9990309 50.80841621 101.30078125 66.25390625 C100.96860596 66.84526367 100.63643066 67.43662109 100.29418945 68.04589844 C99.37376511 69.65371085 98.42221722 71.24359114 97.46875 72.83203125 C96.11129203 75.3849999 96.11129203 75.3849999 96.96875 77.66015625 C98.49813844 79.65979986 100.05757589 81.15651958 102.00390625 82.75390625 C126.49356338 103.61218565 135.70097149 131.18493652 138.37890625 162.50390625 C138.7055792 167.95994396 138.79408787 173.41422223 138.81640625 178.87890625 C138.82647705 180.1429126 138.83654785 181.40691895 138.84692383 182.70922852 C138.70387218 198.05633642 135.26158408 213.25004802 124.40625 224.69921875 C109.0239792 238.39210721 90.31960805 240.82477616 70.609375 240.8046875 C68.99953605 240.80858595 67.38969811 240.81292293 65.77986145 240.81767273 C62.42050835 240.82509191 59.06126043 240.82487547 55.7019043 240.81958008 C51.43577285 240.8137957 47.17007703 240.83071249 42.90401745 240.85392475 C39.58276429 240.86878869 36.26161295 240.86951669 32.94033241 240.86641502 C31.36934867 240.86692205 29.79835826 240.87204089 28.22740746 240.88222694 C9.23212648 240.99029273 -9.00622425 237.63480439 -23.62109375 224.50390625 C-39.11502645 207.79372627 -38.50381442 185.8626351 -37.72332764 164.54748535 C-36.02533772 130.60593398 -24.42704244 103.63008204 0.37890625 80.50390625 C1.69318387 79.47899059 3.01905237 78.46753231 4.37890625 77.50390625 C3.04852356 74.06740417 1.5680321 70.77074471 -0.08203125 67.4765625 C-8.85644892 49.72769331 -17.96177802 30.20763673 -12.37109375 9.94140625 C-9.89414312 3.04457583 -7.67007006 -0.39171692 0 0 Z " fill="#FBD062" transform="translate(237.62109375,159.49609375)"/>
<path d="M0 0 C1.11826172 -0.02900391 2.23652344 -0.05800781 3.38867188 -0.08789062 C5.00032227 -0.10045898 5.00032227 -0.10045898 6.64453125 -0.11328125 C7.61366455 -0.12786377 8.58279785 -0.14244629 9.58129883 -0.1574707 C13.1260964 0.48175509 14.05116068 1.40324446 16.1875 4.3125 C16.78783456 7.3763947 16.73382761 10.40167008 16.70507812 13.515625 C16.71559204 14.91137756 16.71559204 14.91137756 16.72631836 16.33532715 C16.74392461 19.41135493 16.73226606 22.48646285 16.71875 25.5625 C16.72144415 27.69954607 16.72532593 29.83659094 16.73034668 31.97363281 C16.7362453 36.45259267 16.72766683 40.93123347 16.70898438 45.41015625 C16.68619487 51.15392452 16.69931597 56.8969452 16.72327423 62.64068604 C16.73772221 67.05360557 16.73313076 71.4663476 16.72276306 75.87927246 C16.72009302 77.99719328 16.72337524 80.11513017 16.73268127 82.23303223 C16.74283018 85.19224795 16.7273686 88.15024979 16.70507812 91.109375 C16.71317505 91.98638062 16.72127197 92.86338623 16.72961426 93.76696777 C16.64674634 99.69942254 16.64674634 99.69942254 14.29138184 102.84375 C10.19449783 105.70384332 5.44386263 105.48297626 0.60302734 105.85595703 C-29.41309528 108.2962453 -55.49455995 120.05478012 -76.8125 141.3125 C-77.66328125 142.14007813 -78.5140625 142.96765625 -79.390625 143.8203125 C-98.45720035 163.4265079 -108.35467823 190.11199629 -110.04223633 217.04394531 C-110.42264914 222.42840814 -111.26152727 226.52226941 -113.8125 231.3125 C-117.20184871 233.00717436 -121.05909472 232.47816034 -124.78857422 232.48950195 C-125.71878387 232.49607315 -126.64899353 232.50264435 -127.60739136 232.50941467 C-130.69399083 232.52916962 -133.78054163 232.54081413 -136.8671875 232.55078125 C-137.91948673 232.55485678 -138.97178596 232.5589323 -140.05597305 232.56313133 C-145.62373917 232.58399976 -151.19148056 232.5982991 -156.75927734 232.60766602 C-162.51871261 232.61874224 -168.27776277 232.65315409 -174.03706169 232.69283772 C-178.45851374 232.71894169 -182.87987308 232.72735224 -187.30139542 232.73094749 C-189.42492402 232.73582824 -191.54844809 232.74748425 -193.6719017 232.76598549 C-196.64079367 232.79024831 -199.60867665 232.78943558 -202.57763672 232.7824707 C-203.89785828 232.80168579 -203.89785828 232.80168579 -205.24475098 232.82128906 C-211.19199407 232.77032874 -211.19199407 232.77032874 -214.35832214 230.43411255 C-216.14657822 227.82508745 -216.31512902 226.33998629 -216.30859375 223.19140625 C-216.31165527 222.18464844 -216.3147168 221.17789063 -216.31787109 220.140625 C-216.29547363 219.06296875 -216.27307617 217.9853125 -216.25 216.875 C-216.23533691 215.75480469 -216.22067383 214.63460937 -216.20556641 213.48046875 C-215.1625732 166.60556386 -196.15218907 110.64788572 -161.8125 77.3125 C-167.15027214 66.06255417 -175.90601569 54.04803979 -187.8125 49.3125 C-203.10855398 45.94171286 -219.91361397 47.27322898 -235.4347229 48.30552673 C-236.47881317 48.3622908 -237.52290344 48.41905487 -238.59863281 48.47753906 C-239.96897675 48.57279877 -239.96897675 48.57279877 -241.36700439 48.66998291 C-244.6482323 48.19033253 -245.76585853 46.84744394 -247.8125 44.3125 C-248.34375 42.3125 -248.34375 42.3125 -248.3125 40.3125 C-248.3228125 39.6525 -248.333125 38.9925 -248.34375 38.3125 C-247.56232174 35.37065243 -246.16118233 34.21815965 -243.8125 32.3125 C-240.95562744 31.78437805 -240.95562744 31.78437805 -237.61035156 31.74731445 C-236.35514709 31.72502274 -235.09994263 31.70273102 -233.80670166 31.67976379 C-232.43884499 31.6769669 -231.07098453 31.67567706 -229.703125 31.67578125 C-228.29310563 31.66545956 -226.88309151 31.65439563 -225.4730835 31.6426239 C-222.51739699 31.62319839 -219.56218346 31.61976636 -216.60644531 31.6262207 C-212.83530075 31.63220246 -209.06663035 31.58807572 -205.2959938 31.53033161 C-202.38234002 31.49318115 -199.46927321 31.48844083 -196.55541229 31.49260521 C-195.16641179 31.48974833 -193.77738478 31.47579337 -192.38861847 31.45012856 C-180.21199074 31.24882492 -180.21199074 31.24882492 -175.26074219 35.50683594 C-174.08339155 36.74950611 -172.93161275 38.01713506 -171.8125 39.3125 C-170.81338616 40.28879588 -169.80734284 41.25807506 -168.79296875 42.21850586 C-167.87128906 43.14542236 -166.94960937 44.07233887 -166 45.02734375 C-165.50081055 45.52794815 -165.00162109 46.02855255 -164.48730469 46.54432678 C-162.9266263 48.11050764 -161.36950153 49.68016471 -159.8125 51.25 C-158.74112113 52.32640654 -157.66950818 53.40258014 -156.59765625 54.47851562 C-153.99990362 57.08716745 -151.40532038 59.69894471 -148.8125 62.3125 C-148.38332275 61.9402832 -147.95414551 61.56806641 -147.51196289 61.18457031 C-105.98444402 25.35157408 -55.77343745 0.4906754 0 0 Z " fill="#5EDDB9" transform="translate(247.8125,31.6875)"/>
<path d="M0 0 C1.26811523 -0.01260864 2.53623047 -0.02521729 3.84277344 -0.03820801 C5.22331295 -0.03104817 6.60384739 -0.02284418 7.984375 -0.01367188 C9.40397406 -0.0163675 10.82357131 -0.02025051 12.24316406 -0.02526855 C15.21567394 -0.03116045 18.18770241 -0.02261142 21.16015625 -0.00390625 C24.96696287 0.01888413 28.77264149 0.00575925 32.57940674 -0.01819611 C35.51001456 -0.03266301 38.44035574 -0.02804423 41.37097168 -0.01768494 C42.77437474 -0.01502007 44.17780215 -0.01827905 45.58117676 -0.02760315 C47.54369635 -0.03778128 49.50630102 -0.01951228 51.46875 0 C52.58475586 0.00318237 53.70076172 0.00636475 54.85058594 0.00964355 C58.3743709 0.63030344 59.53673497 1.75592906 61.734375 4.51757812 C62.98682823 7.56790777 62.89642463 10.77773718 63.02416992 14.0480957 C64.21868013 44.28734414 74.08203066 74.48609328 92.734375 98.51757812 C93.31960937 99.32195312 93.90484375 100.12632812 94.5078125 100.95507812 C119.22055629 133.76151529 156.60716235 152.78511918 196.734375 158.51757812 C205.149375 159.01257813 205.149375 159.01257813 213.734375 159.51757812 C213.734375 183.60757813 213.734375 207.69757813 213.734375 232.51757812 C189.36168981 232.51757812 189.36168981 232.51757812 182.234375 231.33007812 C181.38383545 231.19770752 180.5332959 231.06533691 179.65698242 230.92895508 C132.85934771 223.28177759 90.93706116 202.25686577 56.734375 169.51757812 C56.23695801 169.04739258 55.73954102 168.57720703 55.22705078 168.09277344 C47.22098737 160.49562878 40.32687779 152.3581366 33.734375 143.51757812 C33.30914551 142.95844727 32.88391602 142.39931641 32.44580078 141.82324219 C5.28758502 106.05082881 -10.11498223 60.69160709 -10.703125 15.89257812 C-10.72552246 14.81886963 -10.74791992 13.74516113 -10.77099609 12.63891602 C-10.76793457 11.63723389 -10.76487305 10.63555176 -10.76171875 9.60351562 C-10.76357178 8.71712402 -10.7654248 7.83073242 -10.76733398 6.91748047 C-9.53185909 1.00764195 -5.45650194 0.01555962 0 0 Z " fill="#7288E8" transform="translate(74.265625,279.482421875)"/>
<path d="M0 0 C0.33 0.99 0.66 1.98 1 3 C24.76 3 48.52 3 73 3 C73 27.375 73 27.375 71.8125 34.5 C71.6794043 35.35271484 71.54630859 36.20542969 71.40917969 37.08398438 C64.59909178 78.67579645 47.59924697 117.04688595 20 149 C19.22011719 149.91007813 18.44023437 150.82015625 17.63671875 151.7578125 C15.47083724 154.22066132 13.25655306 156.61995399 11 159 C10.53158691 159.49564453 10.06317383 159.99128906 9.58056641 160.50195312 C1.63826073 168.84733145 -6.76105198 176.13206378 -16 183 C-16.55768066 183.4237793 -17.11536133 183.84755859 -17.68994141 184.28417969 C-56.22316908 213.54109781 -103.05545553 227 -151 227 C-151 202.91 -151 178.82 -151 154 C-145.39 153.67 -139.78 153.34 -134 153 C-92.06525631 147.00932233 -56.01695852 126.88397746 -29.74414062 93.39941406 C-9.23120836 65.98904909 -1.00888722 33.64117047 0 0 Z " fill="#FF884D" transform="translate(439,285)"/>
<path d="M0 0 C3.38606465 0.71724522 5.7910083 2.27884927 8.5546875 4.3125 C12.55326893 6.92399323 16.71643532 6.7332081 21.37890625 6.50390625 C22.92578374 6.15101653 24.46755883 5.77513562 26.00390625 5.37890625 C28.79358623 4.72640483 30.26850259 4.48383286 33.12890625 5.00390625 C36.24116727 7.07874693 38.11489162 9.52834416 40.37890625 12.50390625 C41.18328125 11.69953125 41.98765625 10.89515625 42.81640625 10.06640625 C46.37890625 6.50390625 46.37890625 6.50390625 50.00390625 6.25390625 C53.26024665 6.27704188 54.70361011 6.64559521 57.81640625 8.00390625 C67.00077094 11.87100717 77.27106445 8.4374415 86.37890625 5.50390625 C88.53971307 4.62311548 90.68758871 3.7094241 92.81640625 2.75390625 C97.69610152 0.61613499 102.07284599 -0.85083254 107.37890625 0.50390625 C111.95334128 4.11530233 113.34471054 9.9534746 114.37890625 15.50390625 C116.71021051 38.25518877 105.94835623 58.21929577 95.37890625 77.50390625 C88.11890625 77.50390625 80.85890625 77.50390625 73.37890625 77.50390625 C76.3264721 82.50781905 76.3264721 82.50781905 79.30273438 87.49462891 C81.67221947 91.60988542 83.14032821 94.61931257 82.37890625 99.50390625 C79.922965 102.82665029 78.45324185 104.28008633 74.37890625 105.12890625 C70.50564012 104.32197581 68.7627571 102.50554141 66.37890625 99.50390625 C64.27526776 96.19460247 62.41459506 92.77343231 60.56640625 89.31640625 C60.06431641 88.40181641 59.56222656 87.48722656 59.04492188 86.54492188 C55.37890625 79.78648491 55.37890625 79.78648491 55.37890625 77.50390625 C52.07890625 77.50390625 48.77890625 77.50390625 45.37890625 77.50390625 C45.09515137 78.23528809 44.81139648 78.96666992 44.51904297 79.72021484 C42.77009535 83.99034349 40.63047708 88.03696239 38.50390625 92.12890625 C38.06949219 92.98742187 37.63507813 93.8459375 37.1875 94.73046875 C36.75824219 95.55546875 36.32898438 96.38046875 35.88671875 97.23046875 C35.5014502 97.97893066 35.11618164 98.72739258 34.71923828 99.49853516 C33.1878217 101.78980215 31.71093695 103.04940673 29.37890625 104.50390625 C26.44140625 105.00390625 26.44140625 105.00390625 23.37890625 104.50390625 C20.232402 102.1782292 18.57746139 100.77765617 17.96484375 96.84765625 C18.5340392 92.25113451 20.51882794 89.05022977 22.87890625 85.12890625 C24.36390625 82.61265625 25.84890625 80.09640625 27.37890625 77.50390625 C20.11890625 77.50390625 12.85890625 77.50390625 5.37890625 77.50390625 C-8.20318902 52.52758113 -8.20318902 52.52758113 -11.62109375 39.50390625 C-11.86214844 38.6325 -12.10320312 37.76109375 -12.3515625 36.86328125 C-15.17715052 25.10580091 -14.59473814 13.14553008 -8.99609375 2.37890625 C-5.90759016 -0.05938606 -3.86815087 -0.19754972 0 0 Z " fill="#EFB745" transform="translate(237.62109375,159.49609375)"/>
<path d="M0 0 C2.875 2.25 2.875 2.25 5 5 C5 6.32 5 7.64 5 9 C5.556875 9.02578125 6.11375 9.0515625 6.6875 9.078125 C13.41886055 9.57842882 18.83135897 10.95534927 23.796875 15.7265625 C27.22538603 19.82444949 28.99019971 23.57091732 29.22265625 28.9453125 C29 31 29 31 27.5625 34.0625 C24.48670628 36.38810013 22.68599124 36.73154963 18.8984375 36.4921875 C15.7137577 35.66652977 14.6182761 33.73862109 13 31 C12.71125 30.278125 12.4225 29.55625 12.125 28.8125 C10.78140813 26.21683309 10.78140813 26.21683309 5 25 C5 30.28 5 35.56 5 41 C6.175625 41.0825 7.35125 41.165 8.5625 41.25 C15.69095816 42.18034551 20.34001129 45.65556232 24.7109375 51.1484375 C28.36717789 56.40012824 30.02647213 61.64059218 29 68 C26.83292375 75.8914286 22.12623478 81.0360659 15.1015625 85.09765625 C11.68348497 86.7022123 8.75568045 87.3414255 5 87 C4.9175 87.928125 4.835 88.85625 4.75 89.8125 C4 93 4 93 2.3125 94.875 C-0.78492126 96.38185358 -2.59135918 96.55651279 -6 96 C-8.875 93.75 -8.875 93.75 -11 91 C-11 89.68 -11 88.36 -11 87 C-12.27875 86.95875 -13.5575 86.9175 -14.875 86.875 C-21.28235186 86.15632388 -27.11306523 83.16043385 -31.484375 78.375 C-34.6942123 73.72306188 -35.48934838 69.57857154 -35 64 C-33.5 61.5625 -33.5 61.5625 -31 60 C-28.19525119 59.39077178 -25.79688542 59.32667573 -23 60 C-20.6046157 62.26931144 -19.34429321 64.13926697 -18.125 67.1875 C-16.78140813 69.78316691 -16.78140813 69.78316691 -11 71 C-11 65.72 -11 60.44 -11 55 C-12.98 55 -14.96 55 -17 55 C-23.62937505 53.116514 -28.16979616 48.55278228 -32 43 C-34.75850855 37.95251628 -35.9687769 32.7124431 -35 27 C-32.77535892 19.71045281 -27.59907514 14.66859916 -21.1015625 10.8984375 C-17.68154703 9.300439 -14.75532361 8.65860694 -11 9 C-10.9175 8.071875 -10.835 7.14375 -10.75 6.1875 C-10 3 -10 3 -8.3125 1.125 C-5.21507874 -0.38185358 -3.40864082 -0.55651279 0 0 Z " fill="#EFB745" transform="translate(291,272)"/>
<path d="M0 0 C1.25520447 -0.02229172 2.51040894 -0.04458344 3.8036499 -0.06755066 C5.17150657 -0.07034755 6.53936704 -0.07163739 7.90722656 -0.0715332 C9.31724594 -0.08185489 10.72726005 -0.09291883 12.13726807 -0.10469055 C15.09295458 -0.12411606 18.0481681 -0.1275481 21.00390625 -0.12109375 C24.77505081 -0.11511199 28.54372121 -0.15923873 32.31435776 -0.21698284 C35.22801154 -0.2541333 38.14107835 -0.25887362 41.05493927 -0.25470924 C42.44393977 -0.25756612 43.83296678 -0.27152108 45.22173309 -0.2971859 C57.39858693 -0.49849327 57.39858693 -0.49849327 62.36499023 3.77709961 C63.53698087 5.01412442 64.68390596 6.27564391 65.79785156 7.56518555 C66.75944579 8.49972218 67.72832008 9.42686173 68.70629883 10.34423828 C69.58342529 11.22023682 70.46055176 12.09623535 71.36425781 12.9987793 C72.08813942 13.72122581 72.08813942 13.72122581 72.8266449 14.45826721 C73.83349178 15.46444184 74.83911042 16.47184701 75.84350586 17.48046875 C77.35777736 19.00010223 78.87732586 20.51431072 80.39746094 22.02807617 C88.47526594 30.10092708 88.47526594 30.10092708 92.08300781 34.3581543 C97.85478206 41.10243653 104.3686751 47.20027496 110.67285156 53.44018555 C113.31893762 56.05972224 115.96171569 58.68253225 118.60253906 61.30737305 C119.209758 61.90629364 119.81697693 62.50521423 120.44259644 63.12228394 C125.62580026 68.27480075 125.62580026 68.27480075 126.17285156 72.37768555 C125.79785156 75.56518555 125.79785156 75.56518555 123.67285156 78.44018555 C120.79785156 80.56518555 120.79785156 80.56518555 117.98535156 81.31518555 C107.81469274 78.92208935 98.13810814 64.96391209 90.92480469 57.67163086 C89.09295237 55.82151769 87.25858996 53.97394243 85.42285156 52.12768555 C84.83507935 51.53496857 84.24730713 50.94225159 83.64172363 50.33157349 C80.66606312 47.35226348 77.65673588 44.53566045 74.39160156 41.86987305 C71.36006199 39.33350617 69.48899468 36.66867074 67.39160156 33.32299805 C61.9921719 25.48206329 56.45393327 18.87270932 46.77313232 16.9710083 C35.56239743 15.6276714 24.26564139 15.877047 13.00097656 16.2043457 C11.16020287 16.25742134 11.16020287 16.25742134 9.28224182 16.31156921 C6.93787331 16.39318915 4.59421265 16.49997238 2.25230408 16.63484192 C0.67178001 16.70562202 0.67178001 16.70562202 -0.94067383 16.77783203 C-1.86328506 16.83228989 -2.7858963 16.88674774 -3.73646545 16.94285583 C-7.02235637 16.43955376 -8.14948162 15.1084474 -10.20214844 12.56518555 C-10.73339844 10.56518555 -10.73339844 10.56518555 -10.70214844 8.56518555 C-10.71761719 7.57518555 -10.71761719 7.57518555 -10.73339844 6.56518555 C-9.25255018 0.99022741 -5.20366516 0.05765341 0 0 Z " fill="#42C1A0" transform="translate(10.2021484375,63.434814453125)"/>
<path d="M0 0 C1.22807373 -0.00938095 2.45614746 -0.0187619 3.72143555 -0.02842712 C5.05778704 -0.01794873 6.39413181 -0.0065797 7.73046875 0.00561523 C9.10522539 0.0054602 10.47998246 0.00397053 11.85473633 0.00120544 C14.7331072 -0.00017776 17.6109793 0.01236523 20.48925781 0.03515625 C24.17486205 0.06354149 27.8596378 0.06080293 31.54530334 0.04806614 C34.38325043 0.04110403 37.22100673 0.04890415 40.05892944 0.06132317 C41.4176663 0.06583255 42.77642367 0.06617893 44.13516235 0.06225777 C46.03545513 0.0593407 47.93574384 0.07803008 49.8359375 0.09765625 C51.45665161 0.10576073 51.45665161 0.10576073 53.11010742 0.11402893 C56.29442039 0.55368548 57.6627119 1.23675453 59.91796875 3.50170898 C61.02170253 7.4751506 61.33340458 9.5917067 59.60546875 13.37670898 C57.91796875 15.50170898 57.91796875 15.50170898 55.91796875 16.50170898 C53.96861718 16.6134537 52.01545968 16.66099481 50.06298828 16.67871094 C48.22065109 16.69796379 48.22065109 16.69796379 46.34109497 16.71760559 C44.99432782 16.7257724 43.64755612 16.73321624 42.30078125 16.73999023 C41.62358913 16.74406576 40.94639702 16.74814129 40.24868393 16.75234032 C36.66497859 16.77319717 33.0813115 16.78750099 29.49755859 16.796875 C25.79618763 16.80794418 22.09541709 16.84234991 18.3942585 16.8820467 C15.54778932 16.90819035 12.70146378 16.91656471 9.8548851 16.92015648 C8.49051733 16.92502767 7.1261562 16.93665704 5.76190567 16.95519447 C3.85199706 16.97953491 1.94179662 16.97620611 0.03173828 16.97167969 C-1.0547702 16.97754593 -2.14127869 16.98341217 -3.26071167 16.98945618 C-6.75171827 16.3859341 -7.91813529 15.24820462 -10.08203125 12.50170898 C-10.61328125 10.50170898 -10.61328125 10.50170898 -10.58203125 8.50170898 C-10.5975 7.51170898 -10.5975 7.51170898 -10.61328125 6.50170898 C-9.14523886 0.97496115 -5.17166249 0.00079536 0 0 Z " fill="#42C19F" transform="translate(10.08203125,31.498291015625)"/>
<path d="M0 0 C1.22807373 -0.00938095 2.45614746 -0.0187619 3.72143555 -0.02842712 C5.05778704 -0.01794873 6.39413181 -0.0065797 7.73046875 0.00561523 C9.10522539 0.0054602 10.47998246 0.00397053 11.85473633 0.00120544 C14.7331072 -0.00017776 17.6109793 0.01236523 20.48925781 0.03515625 C24.17486205 0.06354149 27.8596378 0.06080293 31.54530334 0.04806614 C34.38325043 0.04110403 37.22100673 0.04890415 40.05892944 0.06132317 C41.4176663 0.06583255 42.77642367 0.06617893 44.13516235 0.06225777 C46.03545513 0.0593407 47.93574384 0.07803008 49.8359375 0.09765625 C51.45665161 0.10576073 51.45665161 0.10576073 53.11010742 0.11402893 C56.29442039 0.55368548 57.6627119 1.23675453 59.91796875 3.50170898 C61.02170253 7.4751506 61.33340458 9.5917067 59.60546875 13.37670898 C57.91796875 15.50170898 57.91796875 15.50170898 55.91796875 16.50170898 C53.96861718 16.6134537 52.01545968 16.66099481 50.06298828 16.67871094 C48.22065109 16.69796379 48.22065109 16.69796379 46.34109497 16.71760559 C44.99432782 16.7257724 43.64755612 16.73321624 42.30078125 16.73999023 C41.62358913 16.74406576 40.94639702 16.74814129 40.24868393 16.75234032 C36.66497859 16.77319717 33.0813115 16.78750099 29.49755859 16.796875 C25.79618763 16.80794418 22.09541709 16.84234991 18.3942585 16.8820467 C15.54778932 16.90819035 12.70146378 16.91656471 9.8548851 16.92015648 C8.49051733 16.92502767 7.1261562 16.93665704 5.76190567 16.95519447 C3.85199706 16.97953491 1.94179662 16.97620611 0.03173828 16.97167969 C-1.0547702 16.97754593 -2.14127869 16.98341217 -3.26071167 16.98945618 C-6.75171827 16.3859341 -7.91813529 15.24820462 -10.08203125 12.50170898 C-10.61328125 10.50170898 -10.61328125 10.50170898 -10.58203125 8.50170898 C-10.5975 7.51170898 -10.5975 7.51170898 -10.61328125 6.50170898 C-9.14523886 0.97496115 -5.17166249 0.00079536 0 0 Z " fill="#42C19F" transform="translate(10.08203125,-0.501708984375)"/>
<path d="M0 0 C2.875 2.125 2.875 2.125 5 5 C5.92186413 11.37855484 2.7612312 15.81595702 -0.24414062 21.16601562 C-2.42221787 25.15971006 -2.42221787 25.15971006 -2.96875 29.59375 C-1.24092424 33.88544624 1.16738522 37.76413537 3.50390625 41.74609375 C5.09793752 45.21300771 5.47222872 47.23808809 5 51 C2.54405875 54.32274404 1.0743356 55.77618008 -3 56.625 C-7.68685025 55.64857287 -9.90154999 52.65989648 -12.44824219 48.81152344 C-13.98347929 46.25819238 -15.4379983 43.67229277 -16.875 41.0625 C-17.38546875 40.18142578 -17.8959375 39.30035156 -18.421875 38.39257812 C-18.89882813 37.53212891 -19.37578125 36.67167969 -19.8671875 35.78515625 C-20.30144043 35.01051025 -20.73569336 34.23586426 -21.18310547 33.43774414 C-23.19019239 27.44827524 -19.81270144 22.08293115 -17.19726562 16.79882812 C-16.69904297 15.81333984 -16.20082031 14.82785156 -15.6875 13.8125 C-15.20087891 12.81541016 -14.71425781 11.81832031 -14.21289062 10.79101562 C-13.73400391 9.83517578 -13.25511719 8.87933594 -12.76171875 7.89453125 C-12.32819092 7.02675049 -11.89466309 6.15896973 -11.44799805 5.26489258 C-8.49551267 0.64674946 -5.44997051 -0.8897911 0 0 Z " fill="#E29E30" transform="translate(315,208)"/>
<path d="M0 0 C3.88806093 0.81001269 5.63789073 2.58321932 8 5.625 C10.16269979 9.17311099 12.02630402 12.84309976 13.875 16.5625 C14.38546875 17.53896484 14.8959375 18.51542969 15.421875 19.52148438 C15.89882813 20.47216797 16.37578125 21.42285156 16.8671875 22.40234375 C17.30144043 23.26077881 17.73569336 24.11921387 18.18310547 25.00366211 C19.48694648 29.18756556 18.6088651 32.28096404 16.83251953 36.20214844 C16.35411621 37.0377832 15.87571289 37.87341797 15.3828125 38.734375 C14.85816406 39.65347656 14.33351563 40.57257813 13.79296875 41.51953125 C12.96732422 42.93298828 12.96732422 42.93298828 12.125 44.375 C11.58230469 45.33277344 11.03960937 46.29054687 10.48046875 47.27734375 C6.3929586 54.3630276 6.3929586 54.3630276 3 56.625 C0.125 57.0625 0.125 57.0625 -3 56.625 C-5.875 54.5 -5.875 54.5 -8 51.625 C-8.85950634 45.53031869 -5.9559727 41.68106776 -2.75585938 36.8359375 C-0.96827577 33.96314828 0.00434107 32.04174227 -0.03125 28.625 C-1.39042421 24.41594439 -3.41662751 20.67904931 -5.56054688 16.8359375 C-7.64260411 12.92184232 -8.56124992 10.05193754 -8 5.625 C-5.54405875 2.30225596 -4.0743356 0.84881992 0 0 Z " fill="#E29E30" transform="translate(264,207.375)"/>
<path d="M0 0 C5.94 0 11.88 0 18 0 C19.485 2.51625 20.97 5.0325 22.5 7.625 C22.96986328 8.40568848 23.43972656 9.18637695 23.92382812 9.99072266 C26.29331322 14.10597917 27.76142196 17.11540632 27 22 C24.54405875 25.32274404 23.0743356 26.77618008 19 27.625 C15.12673387 26.81806956 13.38385085 25.00163516 11 22 C8.89636151 18.69069622 7.03568881 15.26952606 5.1875 11.8125 C4.68541016 10.89791016 4.18332031 9.98332031 3.66601562 9.04101562 C0 2.28257866 0 2.28257866 0 0 Z " fill="#EFB745" transform="translate(293,237)"/>
<path d="M0 0 C5.94 0 11.88 0 18 0 C15.97507369 5.06231579 13.63535386 9.79458149 11.125 14.625 C10.69058594 15.48351562 10.25617188 16.34203125 9.80859375 17.2265625 C9.37933594 18.0515625 8.95007813 18.8765625 8.5078125 19.7265625 C8.12254395 20.47502441 7.73727539 21.22348633 7.34033203 21.99462891 C5.80891545 24.2858959 4.3320307 25.54550048 2 27 C-0.9375 27.5 -0.9375 27.5 -4 27 C-7.14650425 24.67432295 -8.80144486 23.27374992 -9.4140625 19.34375 C-8.84486705 14.74722826 -6.86007831 11.54632352 -4.5 7.625 C-3.015 5.10875 -1.53 2.5925 0 0 Z " fill="#EFB745" transform="translate(265,237)"/>
<path d="M0 0 C6 2 6 2 8 5 C7.9375 8 7.9375 8 7 11 C4.59196729 12.85233285 3.07258075 14 0 14 C0 9.38 0 4.76 0 0 Z " fill="#FBCF61" transform="translate(296,329)"/>
<path d="M0 0 C0 4.62 0 9.24 0 14 C-6 12 -6 12 -8 9 C-7.9375 6 -7.9375 6 -7 3 C-4.59196729 1.14766715 -3.07258075 0 0 0 Z " fill="#FBCF61" transform="translate(280,297)"/>
<path d="M0 0 C0.598125 0.20625 1.19625 0.4125 1.8125 0.625 C1.049375 1.0375 0.28625 1.45 -0.5 1.875 C-3.1241642 3.58375809 -4.49071976 5.03517753 -6.1875 7.625 C-5.875 4.75 -5.875 4.75 -5.1875 1.625 C-2.1875 -0.375 -2.1875 -0.375 0 0 Z " fill="#9086C9" transform="translate(70.1875,280.375)"/>
</svg>
