<?xml version="1.0" encoding="UTF-8"?>
<svg version="1.1" xmlns="http://www.w3.org/2000/svg" width="512" height="512">
<path d="M0 0 C16.83 0 33.66 0 51 0 C51 10.89 51 21.78 51 33 C74.25146694 33.55283976 74.25146694 33.55283976 94.99755859 25.16894531 C98.94436561 22.86495702 103.17137494 21.15159939 107.375 19.375 C108.2726709 18.99496826 109.1703418 18.61493652 110.09521484 18.22338867 C126.94285757 11.19311893 144.10637162 6.59422039 162 3 C162.89122559 2.81775879 163.78245117 2.63551758 164.70068359 2.44775391 C192.27381858 -2.90082758 224.48762115 -2.39000712 252 3 C252.91297852 3.16628906 253.82595703 3.33257812 254.76660156 3.50390625 C296.3986228 11.16363077 335.16052206 29.40624883 368 56 C368.54446777 56.44005371 369.08893555 56.88010742 369.64990234 57.33349609 C383.72173929 68.81174863 396.93680647 81.57719064 408 96 C408.75925781 96.93070312 409.51851563 97.86140625 410.30078125 98.8203125 C436.16428672 131.07750752 452.61565092 170.52203223 460 211 C460.16371094 211.83031738 460.32742188 212.66063477 460.49609375 213.51611328 C466.23465803 243.34123402 465.18310017 277.35616511 459 307 C458.71116943 308.38662842 458.71116943 308.38662842 458.41650391 309.80126953 C456.24840845 319.82667335 453.36507117 329.56483047 449.79150391 339.18017578 C448.3431696 343.21690247 447.50215519 345.92325717 449 350 C450.20987169 352.42822378 451.45682964 354.80523542 452.75 357.1875 C464.7887994 380.21707229 467.35699558 410.23676224 459.65039062 435.03857422 C455.13986284 448.64126951 449.22084033 460.95135996 440 472 C439.2575 471.67 438.515 471.34 437.75 471 C434.86116688 469.77217129 434.86116688 469.77217129 431 470 C429.06189562 471.67160673 429.06189562 471.67160673 427.375 473.875 C426.78460938 474.59429687 426.19421875 475.31359375 425.5859375 476.0546875 C425.06257813 476.69664062 424.53921875 477.33859375 424 478 C423.34 478.66 422.68 479.32 422 480 C423.32 481.65 424.64 483.3 426 485 C424.48709421 489.41687262 421.05294701 491.38379717 417.3125 493.8125 C416.64621582 494.24900879 415.97993164 494.68551758 415.29345703 495.13525391 C391.0549009 510.63950299 361.80757841 516.19751371 333.40771484 510.92041016 C322.67836886 508.51911503 311.65633875 504.57933143 302.32421875 498.71875 C297.27059084 496.1058284 293.5696389 498.06895609 288.34375 499.70703125 C277.58699198 503.0242327 266.88811264 506.29937465 255.8125 508.375 C255.05066406 508.51784424 254.28882813 508.66068848 253.50390625 508.80786133 C251.00744192 509.24596322 248.50728877 509.62867268 246 510 C244.87972412 510.17587646 243.75944824 510.35175293 242.60522461 510.53295898 C231.04611615 512.18594016 219.60075056 512.35672947 207.9375 512.3125 C206.94143738 512.31067719 205.94537476 512.30885437 204.91912842 512.30697632 C190.40910772 512.26223998 176.27347095 511.81425315 162 509 C161.08847168 508.83371094 160.17694336 508.66742188 159.23779297 508.49609375 C117.60385521 500.83732135 78.84086971 482.59487824 46 456 C45.45553223 455.55994629 44.91106445 455.11989258 44.35009766 454.66650391 C30.27826071 443.18825137 17.06319353 430.42280936 6 416 C5.24074219 415.06929688 4.48148438 414.13859375 3.69921875 413.1796875 C-22.1596216 380.92831086 -38.62794761 341.47485354 -46 301 C-46.16371094 300.16436523 -46.32742187 299.32873047 -46.49609375 298.46777344 C-51.76593684 270.86642584 -51.57288763 238.52782078 -46 211 C-45.72663818 209.62328125 -45.72663818 209.62328125 -45.44775391 208.21875 C-44.13622443 201.7673836 -42.63864963 195.37570123 -41 189 C-40.80680176 188.24525391 -40.61360352 187.49050781 -40.41455078 186.71289062 C-35.77715936 168.99414098 -28.63270972 152.12494393 -20 136 C-19.64824707 135.3404834 -19.29649414 134.6809668 -18.93408203 134.00146484 C-17.84363249 131.97298365 -16.73811889 129.95362207 -15.625 127.9375 C-15.31054932 127.36161133 -14.99609863 126.78572266 -14.67211914 126.19238281 C-14.1731311 125.30631348 -14.1731311 125.30631348 -13.6640625 124.40234375 C-13.30871933 123.76790344 -12.95337616 123.13346313 -12.58726501 122.47979736 C-11 120 -11 120 -8.59436035 117.14782715 C0.70065048 105.76474827 0.39215482 94.75917708 0.1953125 80.56640625 C0.19910673 78.2337078 0.2073092 75.90101277 0.21969604 73.56834412 C0.24036542 67.47688505 0.20179406 61.38723891 0.15020752 55.29602051 C0.1006905 47.96198714 0.12594077 40.62786362 0.13842773 33.29372406 C0.14906948 22.19471188 0.06569192 11.10000278 0 0 Z " fill="#010101" transform="translate(49,0)"/>
<path d="M0 0 C76.23 0 152.46 0 231 0 C231 76.23 231 152.46 231 231 C212.44178002 231 212.44178002 231 203.3125 229.3125 C201.78713623 229.04131348 201.78713623 229.04131348 200.23095703 228.76464844 C161.26802909 221.65405036 124.16537903 206.8517031 93 182 C92.1028125 181.29488281 91.205625 180.58976563 90.28125 179.86328125 C82.8607394 173.92474044 75.89894393 167.52831949 69 161 C68.319375 160.36191406 67.63875 159.72382813 66.9375 159.06640625 C61.8112709 154.11817121 57.44825144 148.55259165 53 143 C52.34 142.20722656 51.68 141.41445313 51 140.59765625 C18.90572323 101.70922815 0 50.3125002 0 0 Z " fill="#FDE8A5" transform="translate(17,264)"/>
<path d="M0 0 C17.47615637 13.98746639 31.76265728 34.4921473 34.578125 57.140625 C37.19348885 83.65241838 32.96297481 106.41118511 17 128 C18.36983503 131.16115776 18.9890638 131.9927092 22 134 C20.58378621 137.12688787 18.87668024 139.53900915 16.625 142.125 C16.03976562 142.80820312 15.45453125 143.49140625 14.8515625 144.1953125 C12.99328239 146.00654755 11.3717373 146.98652635 9 148 C7.02 145.525 7.02 145.525 5 143 C1.43381637 144.28208347 -1.21383347 145.79589871 -4.1875 148.125 C-24.6552548 162.72736835 -48.59666927 165.34519472 -73.0625 162.375 C-95.86137497 157.96823759 -116.75391628 143.93370366 -130.08984375 125.0390625 C-143.69762886 103.88300504 -149.76721262 80.40701976 -145.2734375 55.25390625 C-144.43782608 51.41331623 -143.29006491 47.71369504 -142 44 C-141.63777344 42.95070313 -141.27554687 41.90140625 -140.90234375 40.8203125 C-131.95795086 17.47393107 -114.52602599 -0.7364821 -91.97802734 -11.15966797 C-61.79505528 -23.98240184 -26.22699439 -19.87809661 0 0 Z " fill="#FCA62E" transform="translate(460,332)"/>
<path d="M0 0 C0 76.23 0 152.46 0 231 C-76.23 231 -152.46 231 -231 231 C-231 222.99975166 -230.7940065 215.80087032 -229.625 208 C-229.49867188 207.10539063 -229.37234375 206.21078125 -229.2421875 205.2890625 C-228.84591268 202.52306426 -228.42608876 199.76155335 -228 197 C-227.85473877 196.02337402 -227.70947754 195.04674805 -227.55981445 194.04052734 C-223.45763979 167.70563151 -212.81556258 143.16968099 -200 120 C-199.67 120 -199.34 120 -199 120 C-199 145.74 -199 171.48 -199 198 C-138.94 198 -78.88 198 -17 198 C-17 170.61 -17 143.22 -17 115 C-27.89 115 -38.78 115 -50 115 C-50 104.11 -50 93.22 -50 82 C-60.89 82 -71.78 82 -83 82 C-83 71.11 -83 60.22 -83 49 C-93.89 49 -104.78 49 -116 49 C-116 44.05 -116 39.1 -116 34 C-80.20809021 13.18962984 -41.73329539 0 0 0 Z " fill="#E9E9E9" transform="translate(248,17)"/>
<path d="M0 0 C76.23 0 152.46 0 231 0 C231 10.4089374 230.64950588 19.53686419 228.875 29.625 C228.65561768 30.91229004 228.43623535 32.19958008 228.21020508 33.52587891 C226.24082803 44.59872027 223.43678407 55.29990938 220 66 C215.90538311 66 215.18230121 64.48161683 212.3125 61.625 C192.27838511 42.59960057 164.10761128 33.33650114 136.78125 33.81640625 C108.05164485 35.21133543 80.60598731 47.70860881 61 69 C50.0976507 81.76674571 42.40040788 95.81434131 38 112 C37.6596875 112.969375 37.319375 113.93875 36.96875 114.9375 C29.21396857 139.4526155 35.00003936 166.6011211 45.5078125 189.25 C50.69703795 199.23146098 57.60294503 207.86459568 65.3125 216.00390625 C67 218 67 218 67 220 C53.31017483 224.19313047 39.73197065 227.52151502 25.5625 229.6875 C24.33031738 229.88496826 24.33031738 229.88496826 23.07324219 230.08642578 C15.18793231 231.22759938 8.22335167 231 0 231 C0 154.77 0 78.54 0 0 Z " fill="#E9E9E9" transform="translate(264,264)"/>
<path d="M0 0 C5.00761465 1.66920488 7.44931134 6.23147694 10.63964844 10.29101562 C12.09234943 12.11601687 13.57851071 13.90997739 15.0703125 15.703125 C16.08899144 16.94754862 17.10722729 18.1923351 18.125 19.4375 C18.62257813 20.02813232 19.12015625 20.61876465 19.6328125 21.22729492 C23.04343676 25.45969069 23.04343676 25.45969069 22.84320164 27.95041275 C21.79380504 30.50120225 20.45627723 31.9127366 18.5009613 33.85980225 C17.75072693 34.61416061 17.00049255 35.36851898 16.2275238 36.14573669 C15.39890335 36.96357132 14.5702829 37.78140594 13.71655273 38.62402344 C12.84833893 39.49267532 11.98012512 40.36132721 11.08560181 41.25630188 C8.70471782 43.63545361 6.31737076 46.00775222 3.92691684 48.37726498 C1.42981311 50.85561845 -1.05880091 53.34246678 -3.54832458 55.82843018 C-8.2632527 60.53403298 -12.98577615 65.23193603 -17.71107 69.92712712 C-23.09053996 75.27306824 -28.46149668 80.62752759 -33.83175194 85.98272276 C-44.87838308 96.99799386 -55.9356671 108.00250791 -67 119 C-65.49053489 122.18086518 -63.92058175 124.29869906 -61.375 126.75 C-60.74335938 127.36359375 -60.11171875 127.9771875 -59.4609375 128.609375 C-58.97882813 129.06828125 -58.49671875 129.5271875 -58 130 C-54.84772849 128.60363479 -52.72059618 126.96829025 -50.29205322 124.53256226 C-49.57135147 123.81460983 -48.85064972 123.09665741 -48.10810852 122.35694885 C-47.32767685 121.56932663 -46.54724518 120.78170441 -45.74316406 119.97021484 C-44.91352646 119.14086929 -44.08388885 118.31152374 -43.22911072 117.45704651 C-40.48651536 114.71305719 -37.7510732 111.96205027 -35.015625 109.2109375 C-33.11661233 107.30708432 -31.2160969 105.40473405 -29.31561279 103.50234985 C-24.82452149 99.00504509 -20.33855233 94.50266689 -15.85440326 89.99844134 C-10.74832462 84.86999956 -5.63655841 79.74724302 -0.52430773 74.62495494 C9.99013346 64.08961478 20.49741465 53.54716018 31 43 C34.66576932 44.22192311 34.83354727 45.00665257 36.55859375 48.33984375 C37.02716797 49.23896484 37.49574219 50.13808594 37.97851562 51.06445312 C38.45998047 52.01255859 38.94144531 52.96066406 39.4375 53.9375 C40.15389648 55.30745117 40.15389648 55.30745117 40.88476562 56.70507812 C43.21495641 61.22162075 45.43547324 65.78486581 47.47265625 70.44140625 C47.8169165 71.22330322 48.16117676 72.0052002 48.51586914 72.81079102 C49.14570166 75.65885366 48.46243234 76.52200021 47 79 C45.60101223 80.64229012 45.60101223 80.64229012 43.95689392 82.27688599 C43.33294235 82.90214172 42.70899078 83.52739746 42.06613159 84.17160034 C41.04134201 85.18324753 41.04134201 85.18324753 39.99584961 86.21533203 C39.27539963 86.93446777 38.55494965 87.65360352 37.81266785 88.39453125 C35.4304548 90.77025351 33.04135229 93.13892557 30.65234375 95.5078125 C28.99799272 97.15589398 27.34415522 98.8044911 25.69081116 100.45358276 C21.33721879 104.79386799 16.97809581 109.12855245 12.61737061 113.46166992 C5.63219759 120.4037295 -1.34626487 127.35251906 -8.3215313 134.3045311 C-10.76383917 136.73658492 -13.20951483 139.16521473 -15.65553284 141.59353638 C-17.14555051 143.07672884 -18.63546023 144.56002977 -20.12524414 146.04345703 C-20.81046143 146.72193695 -21.49567871 147.40041687 -22.20166016 148.09945679 C-23.13335777 149.02888092 -23.13335777 149.02888092 -24.08387756 149.9770813 C-24.62605958 150.51574389 -25.1682416 151.05440647 -25.72685337 151.60939217 C-27.11112963 152.99381914 -27.11112963 152.99381914 -28 155 C-44.83 155 -61.66 155 -79 155 C-76.77502475 150.55004949 -74.55366005 148.39915309 -71 145 C-72.40844718 141.78475695 -74.10344786 139.67816132 -76.625 137.25 C-77.57246094 136.32960937 -77.57246094 136.32960937 -78.5390625 135.390625 C-79.02117187 134.93171875 -79.50328125 134.4728125 -80 134 C-83.61224116 135.43872087 -84.84296323 137.0191185 -86.75390625 140.3515625 C-91.70421633 147.58989426 -96.87998326 153.82018769 -105.78771973 155.53741455 C-121.7067536 157.35373275 -138.06186832 156.10547228 -154 155 C-150.07653379 150.30407726 -145.99713924 145.85425883 -141.65982056 141.53956604 C-140.74558211 140.62404596 -140.74558211 140.62404596 -139.8128742 139.69003052 C-137.78858245 137.66410362 -135.76075962 135.64175007 -133.73291016 133.61938477 C-132.2737007 132.16045763 -130.81471191 130.70130977 -129.35592651 129.24195862 C-125.4082302 125.29397609 -121.45746426 121.34907848 -117.5061307 117.40473676 C-113.37236002 113.27722888 -109.24143213 109.14687785 -105.11019897 105.01683044 C-97.29255743 97.20229359 -89.47237086 89.39030879 -81.65126169 81.57924265 C-72.74484035 72.68400922 -63.84126759 63.78592689 -54.93793035 54.88760674 C-36.62844979 36.58857105 -18.3154034 18.29310741 0 0 Z " fill="#F85866" transform="translate(430,93)"/>
<path d="M0 0 C1.44475753 0.47581396 2.88902541 0.95311487 4.33308411 1.43104553 C5.13741284 1.69668336 5.94174158 1.96232119 6.77044392 2.23600864 C9.19512444 3.06686236 11.50714929 4.0259954 13.82421875 5.12109375 C14.62537109 5.49943359 15.42652344 5.87777344 16.25195312 6.26757812 C17.05568359 6.65365234 17.85941406 7.03972656 18.6875 7.4375 C19.50283203 7.81970703 20.31816406 8.20191406 21.15820312 8.59570312 C25.70825146 10.76221765 29.88850886 13.08409594 34 16 C32.46356148 19.68069887 30.21849055 21.98775204 27.375 24.75 C26.55773437 25.54921875 25.74046875 26.3484375 24.8984375 27.171875 C24.27195312 27.77515625 23.64546875 28.3784375 23 29 C24.40844718 32.21524305 26.10344786 34.32183868 28.625 36.75 C29.25664062 37.36359375 29.88828125 37.9771875 30.5390625 38.609375 C31.02117187 39.06828125 31.50328125 39.5271875 32 40 C36.95023163 38.13176354 40.10332482 33.89461743 43.578125 30.08007812 C45.125 28.45703125 45.125 28.45703125 48 26 C52.11090094 26.46277686 54.85975575 28.93788247 58 31.4375 C58.56162842 31.87690918 59.12325684 32.31631836 59.7019043 32.76904297 C65.570185 37.38856141 71.3011012 42.17390552 77 47 C75.34804197 51.25536443 72.17179025 54.10337731 68.99571228 57.25152588 C68.37400904 57.87564354 67.75230579 58.4997612 67.11176306 59.14279151 C65.02447337 61.23572317 62.93010295 63.32142163 60.83569336 65.40722656 C59.33908036 66.90491229 57.84290038 68.40303082 56.34712219 69.90155029 C52.28162989 73.97189447 48.20990764 78.03595394 44.13692164 82.0987978 C39.88199336 86.34495473 35.63232567 90.59637051 31.38197327 94.84710693 C24.24560286 101.98254051 17.10536756 109.11408795 9.96264648 116.24316406 C1.69205117 124.49801864 -6.57329057 132.75810352 -14.83565241 141.02119851 C-22.77177827 148.95793358 -30.71075227 156.8918129 -38.65133476 164.82408905 C-42.03688468 168.20609878 -45.42157522 171.58896521 -48.80562019 174.97248077 C-52.78487703 178.95073695 -56.76666059 182.92644669 -60.75045967 186.90015411 C-62.21672666 188.36348757 -63.68213558 189.82768136 -65.14664841 191.29277039 C-67.13636332 193.28297207 -69.12909994 195.27009587 -71.12269592 197.25640869 C-71.70984298 197.84510435 -72.29699004 198.43380002 -72.90192944 199.04033494 C-76.88582125 203 -76.88582125 203 -78 203 C-81.60368279 185.3581247 -85.22898099 162.91094752 -75.09233952 146.84199083 C-63.9895503 130.64108969 -48.39286842 117.31524783 -33.9071703 104.23381317 C-27.81836668 98.72508037 -21.8822415 93.06177103 -15.95099545 87.38449156 C-3.78969421 75.75032271 8.53902399 64.31282613 21 53 C19.49053489 49.81913482 17.92058175 47.70130094 15.375 45.25 C14.74335938 44.63640625 14.11171875 44.0228125 13.4609375 43.390625 C12.97882813 42.93171875 12.49671875 42.4728125 12 42 C8.86690068 43.38955108 6.75262317 45.00287618 4.34347534 47.42947388 C3.63407806 48.13901215 2.92468079 48.84855042 2.19378662 49.57958984 C1.42584778 50.35786133 0.65790894 51.13613281 -0.13330078 51.93798828 C-0.94997223 52.75758026 -1.76664368 53.57717224 -2.60806274 54.42160034 C-4.38034709 56.20149552 -6.15031708 57.98369745 -7.91824722 59.76791763 C-10.71203395 62.58718647 -13.51186246 65.40036864 -16.31369019 68.2116394 C-22.25673044 74.17686505 -28.19127488 80.15051052 -34.125 86.125 C-40.53770434 92.58172202 -46.95183274 99.0369894 -53.37573612 105.48257244 C-56.61243197 108.73086521 -59.8412555 111.98686664 -63.06887817 115.24417114 C-64.7541205 116.93667419 -66.43964181 118.6288995 -68.12548828 120.32080078 C-68.89747559 121.10312073 -69.66946289 121.88544067 -70.46484375 122.69146729 C-71.16860138 123.39536591 -71.87235901 124.09926453 -72.59744263 124.82449341 C-73.51605166 125.74976428 -73.51605166 125.74976428 -74.45321846 126.69372749 C-76 128 -76 128 -78 128 C-78.20331468 120.86548717 -78.34313416 113.73172427 -78.43945312 106.5949707 C-78.47961494 104.16890549 -78.53415755 101.74303307 -78.60351562 99.31762695 C-78.70088366 95.82454856 -78.74600092 92.33403434 -78.78125 88.83984375 C-78.82254028 87.76041 -78.86383057 86.68097626 -78.90637207 85.5688324 C-78.90697632 84.54830276 -78.90758057 83.52777313 -78.90820312 82.47631836 C-78.92596802 81.58585312 -78.94373291 80.69538788 -78.96203613 79.77793884 C-77.63895458 75.95745903 -75.28620627 74.33202779 -72.20212555 71.81127071 C-68.80643751 69.01828268 -65.76351742 65.89483853 -62.66601562 62.77954102 C-61.98209747 62.09576889 -61.29817932 61.41199677 -60.59353638 60.70750427 C-58.36205869 58.47533697 -56.13413141 56.23966242 -53.90625 54.00390625 C-52.34848588 52.44427456 -50.79049898 50.88486536 -49.2322998 49.32566833 C-45.15309185 45.24266188 -41.07689731 41.1566601 -37.00134277 37.07000732 C-32.83345539 32.8918482 -28.66269776 28.71655638 -24.4921875 24.54101562 C-16.32532814 16.36346604 -8.16165237 8.18274623 0 0 Z " fill="#F85866" transform="translate(342,33)"/>
<path d="M0 0 C1.37120885 0.96375 2.74568776 1.92288366 4.125 2.875 C7 5 7 5 8 7 C7.25809681 9.75231538 6.45625679 12.42272752 5.5625 15.125 C5.31951172 15.87910156 5.07652344 16.63320313 4.82617188 17.41015625 C4.22404181 19.27557879 3.61286537 21.13807683 3 23 C-1.09461689 23 -1.81769879 21.48161683 -4.6875 18.625 C-24.72161489 -0.40039943 -52.89238872 -9.66349886 -80.21875 -9.18359375 C-108.94835515 -7.78866457 -136.39401269 4.70860881 -156 26 C-166.9023493 38.76674571 -174.59959212 52.81434131 -179 69 C-179.3403125 69.969375 -179.680625 70.93875 -180.03125 71.9375 C-187.78603143 96.4526155 -181.99996064 123.6011211 -171.4921875 146.25 C-166.30296205 156.23146098 -159.39705497 164.86459568 -151.6875 173.00390625 C-150 175 -150 175 -150 177 C-152.78920389 177.8630406 -155.58086072 178.71572307 -158.375 179.5625 C-159.1690625 179.80935547 -159.963125 180.05621094 -160.78125 180.31054688 C-161.54179687 180.53935547 -162.30234375 180.76816406 -163.0859375 181.00390625 C-163.7876709 181.21861572 -164.4894043 181.4333252 -165.21240234 181.65454102 C-167 182 -167 182 -169 181 C-171.19806666 178.49004551 -173.07325747 175.72033935 -175 173 C-175.38285156 172.45972168 -175.76570313 171.91944336 -176.16015625 171.36279297 C-182.07780096 162.94313468 -187.15171689 154.59329835 -191 145 C-191.25765137 144.37432129 -191.51530273 143.74864258 -191.78076172 143.10400391 C-204.18682464 112.5792492 -202.64003272 79.20051377 -190.6875 48.875 C-177.23666461 18.00491505 -152.81219156 -4.78883002 -122.1796875 -18.23828125 C-80.94427505 -34.1785377 -34.77497546 -26.62280908 0 0 Z " fill="#B5BFCC" transform="translate(481,307)"/>
<path d="M0 0 C5.61 0 11.22 0 17 0 C17.495 8.91 17.495 8.91 18 18 C20.2584375 19.051875 20.2584375 19.051875 22.5625 20.125 C32.19255966 25.0283167 37.29999357 30.616111 41 41 C41.42820924 44.20480812 41.32420174 46.75798255 41 50 C35.72 50 30.44 50 25 50 C23 44 23 44 21 38 C15.08336111 34.45001666 8.7285353 34.07852101 2 35 C-1.89094101 36.99226877 -4.19893664 39.67650402 -6.4375 43.375 C-7.92688509 50.32546377 -7.3583312 54.32807213 -3.58203125 60.23828125 C0.4151787 64.6894953 4.99235962 65.54862255 10.6875 66.375 C21.07721544 68.12887757 29.2588245 71.59145929 36 80 C41.7343432 88.3392735 41.86080895 97.20059035 41 107 C39.3897085 114.76427178 34.94756223 120.86162991 29 126 C21.00934579 131 21.00934579 131 17 131 C17 136.94 17 142.88 17 149 C11.39 149 5.78 149 0 149 C0 143.06 0 137.12 0 131 C-2.31 130.34 -4.62 129.68 -7 129 C-15.40827724 123.97360083 -20.42291581 117.57633771 -23.51953125 108.40625 C-24 106 -24 106 -24 99 C-18.72 99 -13.44 99 -8 99 C-7.608125 100.381875 -7.21625 101.76375 -6.8125 103.1875 C-5.13548754 108.21853739 -2.76579225 111.39184863 1.89453125 114.1015625 C6.27111502 115.96912144 10.84043462 115.83692499 15.2578125 114.125 C18.90814494 112.07758107 20.78153954 110.35499825 23 106.75 C24.59212258 100.77954033 25.14859737 96.21515208 22.25 90.625 C17.4432322 85.01710423 13.3842336 84.32887098 6.3125 83.1875 C-1.22486974 81.8132797 -7.32848891 80.46895713 -13 75 C-13.639375 74.401875 -14.27875 73.80375 -14.9375 73.1875 C-21.69400547 66.20577768 -24.20073865 59.09109183 -24.5 49.4375 C-24.16742179 38.77354051 -20.44495444 32.42807246 -13 25 C-8.99083153 21.29151916 -6.39695172 20.31297931 -1 18 C-0.67 12.06 -0.34 6.12 0 0 Z " fill="#040200" transform="translate(396,330)"/>
<path d="M0 0 C5.61 0 11.22 0 17 0 C17 60.06 17 120.12 17 182 C11.39 182 5.78 182 0 182 C0 121.94 0 61.88 0 0 Z " fill="#FDA72E" transform="translate(66,16)"/>
<path d="M0 0 C5.61 0 11.22 0 17 0 C17 49.17 17 98.34 17 149 C11.39 149 5.78 149 0 149 C0 99.83 0 50.66 0 0 Z " fill="#FCA62E" transform="translate(99,49)"/>
<path d="M0 0 C1.06816445 0.86807601 2.12918085 1.74494783 3.1875 2.625 C3.77917969 3.11226563 4.37085938 3.59953125 4.98046875 4.1015625 C7.54686166 6.51407112 9.74508093 9.29409712 12 12 C-20.34 44.34 -52.68 76.68 -86 110 C-89.66771845 108.16614077 -91.46834996 106.74937171 -94.25 103.875 C-94.95640625 103.15054688 -95.6628125 102.42609375 -96.390625 101.6796875 C-96.92171875 101.12539063 -97.4528125 100.57109375 -98 100 C-96.54190191 96.64516562 -94.69713436 94.44988336 -92.11495972 91.87445068 C-91.3044516 91.06119324 -90.49394348 90.24793579 -89.65887451 89.41003418 C-88.76839417 88.52674438 -87.87791382 87.64345459 -86.96044922 86.73339844 C-86.0139238 85.78743735 -85.06783893 84.84103527 -84.12216187 83.89422607 C-81.55657326 81.32806382 -78.98486641 78.76811335 -76.41201925 76.20923138 C-73.72318166 73.53289903 -71.04000938 70.8508992 -68.35623169 68.16949463 C-63.27456387 63.09404217 -58.18781945 58.02370937 -53.09923279 52.95519471 C-47.30575182 47.18407095 -41.51795103 41.40726493 -35.7306211 35.62997389 C-23.82672435 23.74698043 -11.91571235 11.87114554 0 0 Z " fill="#010100" transform="translate(200,300)"/>
<path d="M0 0 C5.68219893 19.65187376 9 39.50990461 9 60 C-14.1 60 -37.2 60 -61 60 C-57.21387679 55.58285625 -53.56334063 51.43493312 -49.48535156 47.34008789 C-48.97074875 46.82212646 -48.45614594 46.30416504 -47.9259491 45.77050781 C-46.25010513 44.08528053 -44.57062577 42.40373895 -42.890625 40.72265625 C-41.71564617 39.54446003 -40.54074096 38.36619039 -39.36590576 37.18785095 C-36.91676634 34.73275489 -34.46560059 32.2797027 -32.01318359 29.82788086 C-28.8650581 26.67985772 -25.72391022 23.52496789 -22.58441544 20.36834049 C-20.16696872 17.93981204 -17.74502811 15.51580485 -15.32176971 13.09307671 C-14.16069781 11.93082236 -13.00125261 10.76694066 -11.84345245 9.60142708 C-10.23267097 7.98090729 -8.61574956 6.36677595 -6.99707031 4.75415039 C-6.07806946 3.83372452 -5.1590686 2.91329865 -4.21221924 1.96498108 C-2 0 -2 0 0 0 Z " fill="#F75766" transform="translate(486,188)"/>
<path d="M0 0 C6.23986743 0 12.10890589 0.03693797 18.25 0.75 C19.00087891 0.83580322 19.75175781 0.92160645 20.52539062 1.01000977 C26.88572674 1.78172536 33.19326048 2.81320857 39.5 3.9375 C40.39493164 4.09508789 41.28986328 4.25267578 42.21191406 4.41503906 C48.2834656 5.53923358 54.12205556 7.11302831 60 9 C58.39123724 13.01009391 55.57200449 15.70324135 52.55639648 18.68652344 C52.0017572 19.24306107 51.44711792 19.79959869 50.87567139 20.3730011 C49.04565874 22.20671128 47.20855853 24.03313466 45.37109375 25.859375 C44.09802923 27.13124738 42.82533419 28.40348967 41.55299377 29.67608643 C38.88875374 32.33876354 36.22119011 34.99804967 33.55102539 37.65478516 C30.12021336 41.06856449 26.69606439 44.48893314 23.27413845 47.91161728 C20.64857821 50.53690635 18.0204257 53.15958689 15.39137459 55.7813797 C14.12722571 57.04233663 12.8636902 58.30390879 11.60076714 59.56609344 C9.8410866 61.32361842 8.07816094 63.07781818 6.31420898 64.83105469 C5.78795425 65.3577626 5.26169952 65.88447052 4.71949768 66.42713928 C1.11447708 70 1.11447708 70 0 70 C0 46.9 0 23.8 0 0 Z " fill="#F75766" transform="translate(264,17)"/>
<path d="M0 0 C5.61 0 11.22 0 17 0 C17 38.28 17 76.56 17 116 C11.39 116 5.78 116 0 116 C0 77.72 0 39.44 0 0 Z " fill="#FEA72F" transform="translate(132,82)"/>
<path d="M0 0 C6.51338506 2.96317088 10.88851436 8.43342316 13.5625 14.9375 C14.55048346 23.10839025 14.67663014 31.16929476 9.5625 37.9375 C5.13134271 43.54161069 -1.18501674 47.2523777 -8.25 48.390625 C-16.07199919 48.69481386 -21.32234218 46.62786357 -27.1875 41.5625 C-32.82623292 34.98397826 -36.02929712 29.34927455 -35.80859375 20.625 C-34.72148616 12.75205241 -30.38717093 7.24257546 -24.40234375 2.3125 C-17.44094234 -2.55909701 -8.03583614 -2.55757457 0 0 Z " fill="#030302" transform="translate(200.4375,365.0625)"/>
<path d="M0 0 C6.30852282 3.88428698 10.61865202 9.36507653 12.5 16.5 C13.31259805 24.11574451 13.37793139 31.28302863 8.5 37.5 C2.67654172 43.75295412 -3.23316774 47.55383797 -11.9375 47.9375 C-19.58443246 47.71721799 -24.87279725 44.51574293 -30.5 39.5 C-34.53023001 33.53770744 -37.51721402 27.25005735 -37.0234375 19.94921875 C-35.1749047 11.29974065 -30.35592013 5.60150098 -23.625 0.1875 C-17.03172685 -3.362724 -6.76366798 -2.96489555 0 0 Z " fill="#030202" transform="translate(135.5,299.5)"/>
<path d="M0 0 C5.61 0 11.22 0 17 0 C17 27.39 17 54.78 17 83 C11.39 83 5.78 83 0 83 C0 55.61 0 28.22 0 0 Z " fill="#FEA72F" transform="translate(165,115)"/>
<path d="M0 0 C0.66 0 1.32 0 2 0 C3.33984375 1.6171875 3.33984375 1.6171875 4.9375 3.875 C18.20288723 21.29778694 40.48547615 34.28238751 62.25976562 37.31469727 C78.21047507 39.06580776 93.67916114 39.03124469 109 34 C109.95519531 33.71125 110.91039062 33.4225 111.89453125 33.125 C128.9120917 27.54383815 143.01295492 17.18574959 155 4 C155.33 3.34 155.66 2.68 156 2 C156.99 2.495 156.99 2.495 158 3 C156.02 5.97 154.04 8.94 152 12 C153.64856825 16.12403473 153.64856825 16.12403473 157 18 C155.58378621 21.12688787 153.87668024 23.53900915 151.625 26.125 C151.03976562 26.80820312 150.45453125 27.49140625 149.8515625 28.1953125 C147.99328239 30.00654755 146.3717373 30.98652635 144 32 C142.02 29.525 142.02 29.525 140 27 C136.43381637 28.28208347 133.78616653 29.79589871 130.8125 32.125 C110.3447452 46.72736835 86.40333073 49.34519472 61.9375 46.375 C39.18711719 41.97761057 18.07034444 27.94047748 4.88671875 8.95703125 C0 1.38702405 0 1.38702405 0 0 Z " fill="#F97D2F" transform="translate(325,448)"/>
<path d="M0 0 C5.61 0 11.22 0 17 0 C17 16.17 17 32.34 17 49 C11.39 49 5.78 49 0 49 C0 32.83 0 16.66 0 0 Z " fill="#FEA72F" transform="translate(198,149)"/>
<path d="M0 0 C5.61 0 11.22 0 17 0 C17 38.28 17 76.56 17 116 C11.39 116 5.78 116 0 116 C0 77.72 0 39.44 0 0 Z M1 1 C1 33.67 1 66.34 1 100 C5.95 100 10.9 100 16 100 C16 67.33 16 34.66 16 1 C11.05 1 6.1 1 1 1 Z " fill="#DC7C29" transform="translate(132,82)"/>
<path d="M0 0 C5.61 0 11.22 0 17 0 C17 60.06 17 120.12 17 182 C11.39 182 5.78 182 0 182 C0 176.72 0 171.44 0 166 C5.28 166 10.56 166 16 166 C16 111.55 16 57.1 16 1 C10.72 1 5.44 1 0 1 C0 0.67 0 0.34 0 0 Z " fill="#CF7127" transform="translate(66,16)"/>
<path d="M0 0 C5.61 0 11.22 0 17 0 C17 27.39 17 54.78 17 83 C11.39 83 5.78 83 0 83 C0 55.61 0 28.22 0 0 Z M1 1 C1 22.78 1 44.56 1 67 C5.95 67 10.9 67 16 67 C16 45.22 16 23.44 16 1 C11.05 1 6.1 1 1 1 Z " fill="#E07B2A" transform="translate(165,115)"/>
<path d="M0 0 C5.61 0 11.22 0 17 0 C17 49.17 17 98.34 17 149 C11.72 149 6.44 149 1 149 C1 143.72 1 138.44 1 133 C5.95 133 10.9 133 16 133 C16 89.44 16 45.88 16 1 C10.72 1 5.44 1 0 1 C0 0.67 0 0.34 0 0 Z " fill="#D57428" transform="translate(99,49)"/>
<path d="M0 0 C0.33 0 0.66 0 1 0 C1 10.89 1 21.78 1 33 C5.95 33 10.9 33 16 33 C16 22.11 16 11.22 16 0 C16.33 0 16.66 0 17 0 C17 16.17 17 32.34 17 49 C11.39 49 5.78 49 0 49 C0 32.83 0 16.66 0 0 Z " fill="#ED7D2D" transform="translate(198,149)"/>
<path d="M0 0 C5.61 0 11.22 0 17 0 C17 5.61 17 11.22 17 17 C11.39 17 5.78 17 0 17 C0 11.39 0 5.78 0 0 Z " fill="#0D0902" transform="translate(462,396)"/>
<path d="M0 0 C5.61 0 11.22 0 17 0 C17 5.61 17 11.22 17 17 C11.39 17 5.78 17 0 17 C0 11.39 0 5.78 0 0 Z " fill="#0D0902" transform="translate(330,396)"/>
<path d="M0 0 C2.63091646 2.21983576 2.93215998 3.54450273 3.4375 6.9375 C2.87499856 10.87501007 2.03727005 12.41832046 -1 15 C-4.99893269 15.94237143 -7.98105682 15.61136591 -11.5 13.5 C-13.61701264 9.97164559 -13.92632945 7.0086292 -13 3 C-9.35074446 -1.67560867 -5.32217025 -1.7855766 0 0 Z " fill="#F35664" transform="translate(195,381)"/>
<path d="M0 0 C3 2 3 2 5 5 C5.32035831 7.88884515 4.96503736 10.26474073 4 13 C1.65798844 15.88247576 0.20016837 15.97497895 -3.5 16.4375 C-7 16 -7 16 -9.4375 14.5 C-11.63828902 10.97873756 -11.80414661 8.04560357 -11 4 C-8.16650967 -0.53358453 -5.10426635 -0.80593679 0 0 Z " fill="#F35664" transform="translate(127,314)"/>
</svg>
